<svg xmlns="http://www.w3.org/2000/svg" viewBox="0 0 200 260" width="200" height="260">
  <rect width="200" height="260" fill="none"/>
  
  <g stroke="#D4C2A1" stroke-width="1" fill="none" opacity="0.3">
    <line x1="0" y1="65" x2="200" y2="65" stroke-dasharray="2 4"/>
    <line x1="0" y1="130" x2="200" y2="130" stroke-dasharray="2 4"/>
    <line x1="0" y1="195" x2="200" y2="195" stroke-dasharray="2 4"/>
    <line x1="50" y1="0" x2="50" y2="260" stroke-dasharray="2 4"/>
    <line x1="100" y1="0" x2="100" y2="260" stroke-dasharray="2 4"/>
    <line x1="150" y1="0" x2="150" y2="260" stroke-dasharray="2 4"/>
  </g>
  
  <g transform="translate(100, 110)">
    <path d="M 0 -45 C -22 -45 -40 -27 -40 -5 C -40 22 0 60 0 60 C 0 60 40 22 40 -5 C 40 -27 22 -45 0 -45 Z" 
          fill="none" stroke="#D4C2A1" stroke-width="2" stroke-linejoin="round"/>
    <circle cx="0" cy="-5" r="10" fill="none" stroke="#D4C2A1" stroke-width="2"/>
    <circle cx="0" cy="-5" r="3" fill="#D4C2A1"/>
  </g>
  
  <text x="100" y="220" 
        text-anchor="middle" 
        font-family="Cormorant Garamond, serif" 
        font-size="11" 
        font-style="italic" 
        fill="#D4C2A1" 
        opacity="0.7">
    Map placeholder
  </text>
  <text x="100" y="238" 
        text-anchor="middle" 
        font-family="Cormorant Garamond, serif" 
        font-size="9" 
        fill="#D4C2A1" 
        opacity="0.5"
        letter-spacing="2">
    REPLACE ME
  </text>
</svg>
