<svg width="210mm" height="297mm" viewBox="0 0 210 297" version="1.1" id="svg1" xml:space="preserve" xmlns:xlink="http://www.w3.org/1999/xlink" xmlns="http://www.w3.org/2000/svg"><defs id="defs1"><linearGradient id="linearGradient5"><stop style="stop-color:#f5f2ed;stop-opacity:1;" offset="0" id="stop1"></stop><stop style="stop-color:#d4c2a1;stop-opacity:0;" offset="1" id="stop4"></stop></linearGradient><linearGradient id="linearGradient11"><stop style="stop-color:#d4c2a1;stop-opacity:1;" offset="0" id="stop10"></stop><stop style="stop-color:#d4c2a1;stop-opacity:0;" offset="1" id="stop11"></stop></linearGradient><linearGradient xlink:href="#linearGradient11" id="linearGradient12" gradientUnits="userSpaceOnUse" gradientTransform="matrix(0.91366851,0,0,0.93578112,22.234052,7.7390539)" x1="121.81312" y1="151.93895" x2="57.370056" y2="68.110558"></linearGradient><linearGradient xlink:href="#linearGradient5" id="linearGradient4" gradientUnits="userSpaceOnUse" gradientTransform="matrix(0.91366851,0,0,0.93578112,21.211829,7.4456515)" x1="121.81312" y1="151.93895" x2="57.370056" y2="68.110558"></linearGradient></defs><g id="g5"><path style="fill:url(#linearGradient12);fill-opacity:1;stroke-width:0.688524" d="m 99.53884,150.16255 c -7.61418,-1.07818 -14.77444,-5.49752 -19.79811,-11.95913 -3.33275,-4.475 -5.49071,-10.09694 -6.16843,-15.8621 -0.43521,-3.9919 -0.064,-8.10887 0.91697,-11.96329 2.87739,-10.0072 10.10911,-18.426067 19.02928,-21.773697 1.84998,-0.627384 3.61007,1.613386 3.03291,3.580767 -0.49935,2.637598 -4.13537,2.601766 -5.74322,4.256661 -5.96558,3.642169 -9.86182,10.637499 -10.80218,18.095669 -0.2607,3.68883 -0.18921,7.49707 1.03557,11.00574 1.99907,6.27081 6.30778,11.61938 11.67356,14.49685 2.47169,1.10897 6.80715,3.82512 8.72801,2.26452 0.43705,-12.69044 0.64338,-25.3905 1.09313,-38.08073 0.0735,-6.103324 0.43368,-12.195274 0.55704,-18.297263 1.23503,-1.454251 1.77459,1.275445 1.59241,2.310198 0.76421,14.458205 0.58712,28.958065 1.30796,43.420795 0.16032,3.74266 0.14113,7.49539 0.37039,11.23313 3.37764,0.12672 6.74133,-1.45983 9.76654,-3.10787 8.36837,-4.71554 13.16097,-15.89664 11.4822,-26.15806 -1.26063,-8.83321 -7.25136,-16.160612 -14.63225,-19.256834 -2.70059,-0.208708 -2.09915,-4.127739 -0.50425,-5.458184 2.16186,-1.153328 4.43166,1.240109 6.38606,2.129606 8.25737,4.696589 14.08334,14.039232 15.36772,24.287102 0.24979,2.56613 0.14704,5.21217 0.0457,7.7869 -1.8839,11.71464 -10.13319,21.57434 -20.08016,25.40314 -4.69517,1.73009 -9.74518,2.50415 -14.65684,1.64608 z m 3.27099,-70.726888 c -3.84108,-0.518489 -4.56966,-6.561808 -1.1048,-8.404601 2.21943,-1.503323 5.11642,-0.386352 6.28415,2.116227 0.775,1.894189 0.18953,4.433987 -1.58231,5.406191 -1.06025,0.718954 -2.35641,1.15779 -3.59704,0.882183 z" id="path12"></path><path style="fill:url(#linearGradient4);fill-opacity:1;stroke-width:0.688524" d="m 98.516599,149.8691 c -7.614181,-1.07818 -14.774434,-5.49752 -19.798104,-11.95913 -3.33274,-4.475 -5.49071,-10.09692 -6.16842,-15.86208 -0.43522,-3.99189 -0.064,-8.10886 0.91696,-11.96327 2.87739,-10.00719 10.10912,-18.426061 19.029283,-21.773691 1.84998,-0.627384 3.610067,1.613386 3.0329,3.580767 -0.499337,2.637598 -4.13536,2.601766 -5.743214,4.256661 -5.965579,3.642166 -9.861809,10.637503 -10.802169,18.095653 -0.26071,3.68883 -0.18921,7.49707 1.03557,11.00573 1.99906,6.2708 6.30777,11.61936 11.673553,14.49683 2.47168,1.10897 6.807141,3.82512 8.727992,2.26452 0.43704,-12.69043 0.64338,-25.39047 1.09313,-38.08067 0.0735,-6.103335 0.43367,-12.195288 0.55704,-18.297277 1.23503,-1.454251 1.77459,1.275445 1.5924,2.310198 0.76421,14.458209 0.58712,28.958059 1.30796,43.420759 0.16032,3.74265 0.14113,7.49538 0.37039,11.23312 3.37764,0.12672 6.74133,-1.45983 9.76654,-3.10787 8.36837,-4.71554 13.16097,-15.89662 11.4822,-26.15802 -1.26063,-8.83321 -7.25136,-16.160606 -14.63225,-19.256828 -2.70059,-0.208708 -2.09915,-4.127739 -0.50425,-5.458184 2.16186,-1.153328 4.43166,1.240109 6.38606,2.129606 8.25737,4.696589 14.08334,14.039226 15.36772,24.287096 0.24979,2.56612 0.14704,5.21216 0.0457,7.78688 -1.8839,11.71462 -10.13319,21.57432 -20.08016,25.40312 -4.69517,1.73009 -9.74518,2.50415 -14.656831,1.64608 z m 3.270981,-70.726842 c -3.841068,-0.518489 -4.569642,-6.561808 -1.1048,-8.404601 2.21943,-1.503323 5.11641,-0.386352 6.28415,2.116227 0.77499,1.894189 0.18952,4.433987 -1.58232,5.406191 -1.06025,0.718954 -2.35641,1.15779 -3.59703,0.882183 z" id="path4"></path></g></svg>
